HIERARCHY
ROOT root
{
	OFFSET	0	13.1	24.9
	CHANNELS 6  Xposition Yposition Zposition Xrotation Yrotation Zrotation
	JOINT spine_1
	{
		OFFSET	0	9.99999	0
		CHANNELS 3  Xrotation Yrotation Zrotation
		JOINT spine_2
		{
			OFFSET	0	112	-10
			CHANNELS 3  Xrotation Yrotation Zrotation
			JOINT spine_3
			{
				OFFSET	0	206.5	19.3
				CHANNELS 3  Xrotation Yrotation Zrotation
				JOINT spine_4
				{
					OFFSET	0	110.4	14.6
					CHANNELS 3  Xrotation Yrotation Zrotation
					JOINT neck_1
					{
						OFFSET	0	71.8	-50.3
						CHANNELS 3  Xrotation Yrotation Zrotation
						JOINT neck_2
						{
							OFFSET	0	86.2	-25.8
							CHANNELS 3  Xrotation Yrotation Zrotation
							JOINT head_ee
							{
								OFFSET	0	179.8	-8.7
								CHANNELS 3  Xrotation Yrotation Zrotation
								End Site
								{
									OFFSET	1	0	0
								}
							}
						}
					}
					JOINT left_clavicle
					{
						OFFSET	-43.2	22.4	-70.8
						CHANNELS 3  Xrotation Yrotation Zrotation
						JOINT left_shoulder
						{
							OFFSET	-93.9	-5.79999	48.7
							CHANNELS 3  Xrotation Yrotation Zrotation
							JOINT left_elbow
							{
								OFFSET	-291.4	-30.8	15.2
								CHANNELS 3  Xrotation Yrotation Zrotation
								JOINT left_lowarm_twist
								{
									OFFSET	-110.7	-3.89999	13.6
									CHANNELS 3  Xrotation Yrotation Zrotation
									JOINT left_hand
									{
										OFFSET	-110.7	-3.89999	13.6
										CHANNELS 3  Xrotation Yrotation Zrotation
										JOINT left_ee
										{
											OFFSET	-80.8	-5.10001	12.1
											CHANNELS 3  Xrotation Yrotation Zrotation
											End Site
											{
												OFFSET	1	0	0
											}
										}
									}
								}
							}
						}
					}
					JOINT right_clavicle
					{
						OFFSET	43.2	22.4	-70.8
						CHANNELS 3  Xrotation Yrotation Zrotation
						JOINT right_shoulder
						{
							OFFSET	93.9	-5.79999	48.7
							CHANNELS 3  Xrotation Yrotation Zrotation
							JOINT right_elbow
							{
								OFFSET	291.4	-30.8	15.2
								CHANNELS 3  Xrotation Yrotation Zrotation
								JOINT right_lowarm_twist
								{
									OFFSET	110.7	-3.89999	13.6
									CHANNELS 3  Xrotation Yrotation Zrotation
									JOINT right_hand
									{
										OFFSET	110.7	-3.89999	13.6
										CHANNELS 3  Xrotation Yrotation Zrotation
										JOINT right_ee
										{
											OFFSET	80.8	-5.10001	12.1
											CHANNELS 3  Xrotation Yrotation Zrotation
											End Site
											{
												OFFSET	1	0	0
											}
										}
									}
								}
							}
						}
					}
				}
			}
		}
	}
	JOINT left_hip
	{
		OFFSET	-82.8	-127.5	0.300001
		CHANNELS 3  Xrotation Yrotation Zrotation
		JOINT left_knee
		{
			OFFSET	-28.2	-396.7	2.2
			CHANNELS 3  Xrotation Yrotation Zrotation
			JOINT left_ankle
			{
				OFFSET	-11.7	-411.3	35.4
				CHANNELS 3  Xrotation Yrotation Zrotation
				JOINT left_toes
				{
					OFFSET	0	-60	-88.6
					CHANNELS 3  Xrotation Yrotation Zrotation
					JOINT left_foot_ee
					{
						OFFSET	-22.5	-16.5	-42.2
						CHANNELS 3  Xrotation Yrotation Zrotation
						End Site
						{
							OFFSET	1	0	0
						}
					}
				}
			}
		}
	}
	JOINT right_hip
	{
		OFFSET	82.8	-127.5	0.300001
		CHANNELS 3  Xrotation Yrotation Zrotation
		JOINT right_knee
		{
			OFFSET	28.2	-396.7	2.2
			CHANNELS 3  Xrotation Yrotation Zrotation
			JOINT right_ankle
			{
				OFFSET	11.7	-411.3	35.4
				CHANNELS 3  Xrotation Yrotation Zrotation
				JOINT right_toes
				{
					OFFSET	0	-60	-88.6
					CHANNELS 3  Xrotation Yrotation Zrotation
					JOINT right_foot_ee
					{
						OFFSET	22.5	-16.5	-42.2
						CHANNELS 3  Xrotation Yrotation Zrotation
						End Site
						{
							OFFSET	1	0	0
						}
					}
				}
			}
		}
	}
}
MOTION
Frames: 6
Frame Time: 0.02
2738.49694176 709.144 -1678.24237736 4.93239800142 44.8902115186 -3.6893937561 -1.17258 -0.0599126 0.774531 -1.17225 -0.109075 0.769149 -1.17353 -0.283189 0.723392 -1.17422 -0.165392 0.759035 -10.4181 13.1592 13.9361 -9.96676 15.4896 16.7701 -0.0 0.0 -0.0 0.511097 21.6847 3.24474 6.10883 -12.4468 61.9938 2.25618 -48.1732 1.00871 9.83293 0.241293 -1.23135 0.0858234 1.34313 1.13606 -0.0 0.0 -0.0 9.78929 15.6457 -19.1956 -21.6171 38.4492 -53.9622 0.3604 10.1227 -0.0319198 19.9152 -0.266637 2.51723 3.89187 9.97763 -22.5848 0.0 0.0 0.0 4.46973 26.8533 -0.508189 -24.1535 0.223258 3.67245 34.5933 8.44574 -4.36403 -3.52706 0.0 0.0 -0.0 0.0 -0.0 35.3477 31.2653 -19.0463 -61.0295 2.31218 -8.63788 -24.8917 -29.6068 -4.00972 -31.0487 0.0 0.0 0.0 0.0 0.0 
2738.43420269 709.144 -1664.27840657 5.09636631853 46.7074284531 -3.91808458038 -1.17258 -0.0599126 0.774531 -1.17225 -0.109075 0.769149 -1.17353 -0.283189 0.723392 -1.17422 -0.165392 0.759035 -10.4181 13.1592 13.9361 -9.96676 15.4896 16.7701 -0.0 0.0 -0.0 0.511097 21.6847 3.24474 6.10883 -12.4468 61.9938 2.25618 -48.1732 1.00871 9.83293 0.241293 -1.23135 0.0858234 1.34313 1.13606 -0.0 0.0 -0.0 9.78929 15.6457 -19.1956 -21.6171 38.4492 -53.9622 0.3604 10.1227 -0.0319198 19.9152 -0.266637 2.51723 3.89187 9.97763 -22.5848 0.0 0.0 0.0 4.46973 26.8533 -0.508189 -24.1535 0.223258 3.67245 34.5933 8.44574 -4.36403 -3.52706 0.0 0.0 -0.0 0.0 -0.0 35.3477 31.2653 -19.0463 -61.0295 2.31218 -8.63788 -24.8917 -29.6068 -4.00972 -31.0487 0.0 0.0 0.0 0.0 0.0 
2730.12882406 710.88 -1625.85340032 5.73484696449 50.5241340666 -3.77400409243 -1.20501 -0.0688292 0.541219 -1.20486 -0.103128 0.535743 -1.20574 -0.22395 0.497497 -1.20606 -0.142571 0.526621 -10.5958 13.4806 13.585 -10.1852 16.3974 16.536 -0.0 0.0 -0.0 1.77086 20.7486 4.97903 7.41656 -11.2488 58.485 2.3056 -48.789 1.04571 8.96849 0.228597 -1.12166 -0.115525 0.967995 -0.361937 -0.0 0.0 -0.0 9.17255 15.8355 -17.8217 -21.4172 39.1774 -55.0965 0.337622 9.49492 -0.0280392 20.0773 -0.265195 2.53789 3.78149 9.28219 -22.112 0.0 0.0 0.0 3.66657 25.9798 -0.831183 -23.12 0.245556 3.51543 33.0548 9.41947 -4.21408 -4.33323 0.0 0.0 -0.0 0.0 -0.0 38.1681 32.7019 -21.7911 -57.255 1.91099 -8.21613 -21.8255 -29.1543 -3.50397 -31.8841 0.0 0.0 0.0 0.0 0.0 
2722.59224408 715.266 -1589.99225083 6.5191126034 54.4867734857 -3.93512616104 -1.33563 -0.0866667 0.387814 -1.33555 -0.111169 0.381514 -1.33627 -0.196976 0.345126 -1.3364 -0.139998 0.371903 -13.0212 12.9216 14.0752 -12.6139 15.7775 17.1534 -0.0 0.0 -0.0 2.61692 19.0665 6.14222 8.87072 -10.9338 56.69 2.4465 -50.465 1.15307 8.28503 0.217388 -1.03508 -0.253797 1.12948 -1.21421 -0.0 0.0 -0.0 8.74414 15.809 -16.8805 -22.2047 39.1352 -55.0134 0.296651 8.36008 -0.0216808 19.9604 -0.266241 2.52299 3.75373 8.38434 -22.3302 0.0 0.0 0.0 2.07591 25.124 -0.268671 -20.5726 0.288392 3.12692 30.0302 10.7223 -3.90373 -5.94666 0.0 0.0 -0.0 0.0 -0.0 40.3327 34.4825 -24.7568 -55.2905 1.71347 -7.98653 -19.1155 -28.3455 -3.05012 -31.8924 0.0 0.0 0.0 0.0 0.0 
2695.26690707 722.869 -1567.26628379 8.24469387109 58.8277168435 -5.82616973556 -1.20814 -0.344277 0.071762 -1.2082 -0.348146 0.049709 -1.20857 -0.350221 -0.0319677 -1.2084 -0.350874 0.0237451 -20.746 10.8485 15.9562 -20.2574 13.0803 19.3166 -0.0 0.0 -0.0 3.39846 18.1026 7.29853 11.0203 -11.5134 55.3167 2.64853 -52.6765 1.31136 5.15649 0.152928 -0.640684 -0.431083 1.79095 -2.11124 -0.0 0.0 -0.0 8.07625 15.4625 -15.4388 -23.8065 38.0226 -55.7417 0.243264 6.87152 -0.014605 20.1393 -0.264628 2.54578 3.70238 5.54928 -23.2448 0.0 0.0 0.0 -4.1388 20.5134 3.01462 -13.8514 0.318205 2.0967 27.4335 10.2369 -3.61561 -8.53583 0.0 0.0 -0.0 0.0 -0.0 44.9923 35.0381 -26.6848 -42.4495 0.629911 -6.33774 -14.677 -24.1445 -2.28155 -31.0877 0.0 0.0 0.0 0.0 0.0 
2696.4338941 722.869 -1561.90342711 8.399395887 59.4595746344 -6.00637659192 -1.20814 -0.344277 0.071762 -1.2082 -0.348146 0.049709 -1.20857 -0.350221 -0.0319677 -1.2084 -0.350874 0.0237451 -20.746 10.8485 15.9562 -20.2574 13.0803 19.3166 -0.0 0.0 -0.0 3.39846 18.1026 7.29853 11.0203 -11.5134 55.3167 2.64853 -52.6765 1.31136 5.15649 0.152928 -0.640684 -0.431083 1.79095 -2.11124 -0.0 0.0 -0.0 8.07625 15.4625 -15.4388 -23.8065 38.0226 -55.7417 0.243264 6.87152 -0.014605 20.1393 -0.264628 2.54578 3.70238 5.54928 -23.2448 0.0 0.0 0.0 -4.1388 20.5134 3.01462 -13.8514 0.318205 2.0967 27.4335 10.2369 -3.61561 -8.53583 0.0 0.0 -0.0 0.0 -0.0 44.9923 35.0381 -26.6848 -42.4495 0.629911 -6.33774 -14.677 -24.1445 -2.28155 -31.0877 0.0 0.0 0.0 0.0 0.0 
